<mxfile host="app.diagrams.net" modified="2023-11-01T06:04:56.656Z" agent="Mozilla/5.0 (Macintosh; Intel Mac OS X 10_15_7) AppleWebKit/537.36 (KHTML, like Gecko) Chrome/118.0.0.0 Safari/537.36" version="21.7.5" etag="-ooj6MXTXVyV4xYqVf0H" type="github">
  <diagram name="Page-1" id="eJgEMnUPmbFcPGliGA-4">
    <mxGraphModel>
      <root>
        <mxCell id="0" />
        <mxCell id="1" parent="0" />
      </root>
    </mxGraphModel>
  </diagram>
</mxfile>
